HIERARCHY
ROOT Hips
{
  OFFSET 155.048 98.1286 3.93448
  CHANNELS 6 Xposition Yposition Zposition Zrotation Xrotation Yrotation
  JOINT RightUpLeg
  {
    OFFSET -8.9458 -8.66707 0.101652
    CHANNELS 3 Zrotation Xrotation Yrotation
    JOINT RightLeg
    {
      OFFSET 0 -44.4227 1.3727
      CHANNELS 3 Zrotation Xrotation Yrotation
      JOINT RightFoot
      {
        OFFSET 0.253549 -42.0924 -1.46059
        CHANNELS 3 Zrotation Xrotation Yrotation
        JOINT RightToes
        {
          OFFSET 0.04 -4.41509 8.4991
          CHANNELS 3 Zrotation Xrotation Yrotation
          End Site
          {
            OFFSET -0.08 -0.137448 9.77979
          }
        }
      }
    }
  }
  JOINT Spine
  {
    OFFSET 0 11.8905 0
    CHANNELS 3 Zrotation Xrotation Yrotation
    JOINT Spine1
    {
      OFFSET 0 25.6574 0.127663
      CHANNELS 3 Zrotation Xrotation Yrotation
      JOINT Head
      {
        OFFSET 0 8.73416 0.011341
        CHANNELS 3 Zrotation Xrotation Yrotation
        End Site
        {
          OFFSET -0.29 12.7742 2.51395
        }
      }
      JOINT LeftShoulder1
      {
        OFFSET 8.99 -0.362252 -0.22
        CHANNELS 3 Zrotation Xrotation Yrotation
        JOINT LeftArm
        {
          OFFSET 10.2827 -0.00337999 0.322123
          CHANNELS 3 Zrotation Xrotation Yrotation
          JOINT LeftForeArm
          {
            OFFSET 26.2597 0.099144 -1.42434
            CHANNELS 3 Zrotation Xrotation Yrotation
            JOINT LeftHand
            {
              OFFSET 22.0902 0.085362 1.02216
              CHANNELS 3 Zrotation Xrotation Yrotation
              End Site
              {
                OFFSET 13.419 -0.6 1.50291
              }
            }
          }
        }
      }
      JOINT RightShoulder
      {
        OFFSET -8.99 -0.362252 -0.22
        CHANNELS 3 Zrotation Xrotation Yrotation
        JOINT RightArm
        {
          OFFSET -10.2827 -0.00338 0.322123
          CHANNELS 3 Zrotation Xrotation Yrotation
          JOINT RightForeArm
          {
            OFFSET -26.364 0.099144 -1.42434
            CHANNELS 3 Zrotation Xrotation Yrotation
            JOINT RightHand
            {
              OFFSET -22.0324 0.085362 1.02216
              CHANNELS 3 Zrotation Xrotation Yrotation
              End Site
              {
                OFFSET -13.3284 -0.6 1.50291
              }
            }
          }
        }
      }
    }
  }
  JOINT LeftUpLeg
  {
    OFFSET 8.9458 -8.66707 0.101652
    CHANNELS 3 Zrotation Xrotation Yrotation
    JOINT LeftLeg
    {
      OFFSET 0 -44.4227 1.3727
      CHANNELS 3 Zrotation Xrotation Yrotation
      JOINT LeftFoot
      {
        OFFSET -0.253549 -42.0924 -1.46059
        CHANNELS 3 Zrotation Xrotation Yrotation
        JOINT LeftToes
        {
          OFFSET -0.04 -4.41509 8.4991
          CHANNELS 3 Zrotation Xrotation Yrotation
          End Site
          {
            OFFSET 0.08 -0.047448 9.77979
          }
        }
      }
    }
  }
}
MOTION
Frames:	8
Frame Time:	0.0333333
154.978 98.1318 3.93887 -0.585927 -0.0571853 -92.6283 -6.21226 -21.7049 -4.56339 -1.07596 27.6149 -18.7768 11.5431 -4.1019 -0.509522 0.0462048 0.000530889 0.662642 -5.3756 -2.48754 0.66722 -1.06987 16.7876 0.900554 3.71559 -5.70574 -7.47262 -38.3913 7.94368 -14.2036 -39.5383 -33.2725 -9.47536 -14.438 19.377 -6.47901 23.0435 9.04229 1.02064 50.3694 13.1871 18.7671 17.1475 -42.1201 -7.30374 5.09642 29.8395 12.1689 -5.3723 9.48664 5.19872 -0.463168 -4.81215 6.34749 1.11516 22.7608 20.1062 -5.72905 -16.0775 -0.347324 -1.37417e-009 8.75219e-006 -1.47719e-008 
154.567 98.1497 3.9595 -0.373757 -0.021509 -92.4812 -5.9737 -22.1815 -4.19211 -1.04779 25.4893 -18.5841 11.6424 -3.88631 -0.533291 0.0462048 0.000530889 0.662642 -5.44359 -2.33693 0.528586 -0.755813 16.6866 0.721731 3.79346 -6.32191 -7.17572 -38.3603 7.9344 -14.1958 -39.6102 -28.4262 -10.041 -13.8395 15.2876 -9.12397 23.0711 9.01961 0.908599 50.4329 13.1933 18.7498 17.1056 -42.4131 -7.49787 5.15769 29.8066 11.9807 -5.28691 9.48453 5.42636 -0.484885 -4.68782 6.21712 1.16986 22.5634 20.0255 -5.82228 -16.1652 -0.358405 -1.37417e-009 8.75219e-006 -1.47719e-008 
153.702 98.1839 3.97768 -0.026343 0.0951917 -92.1542 -5.45443 -22.8007 -3.5797 -1.03302 21.1824 -18.0704 12.0245 -3.66041 -0.568328 0.0462048 0.000530889 0.662642 -5.4029 -1.9978 0.274027 -0.168137 16.4628 0.36702 3.66272 -7.48849 -6.79008 -38.4762 7.98449 -14.2585 -39.2013 -19.2938 -10.872 -13.0415 7.42694 -14.0061 22.9913 8.98805 0.727724 50.5256 13.2131 18.7426 16.949 -42.738 -8.03257 5.29107 29.6313 11.7006 -5.31354 9.49438 5.09715 -0.425563 -4.37267 6.05469 1.26781 22.2738 19.7227 -5.88063 -16.3571 -0.371821 -1.37417e-009 8.75219e-006 -1.47719e-008 
152.657 98.2288 3.9435 0.482375 0.192307 -91.9865 -4.81666 -23.4294 -3.23145 -1.15004 16.3685 -17.284 12.4448 -3.39933 -0.610047 0.0462048 0.000530889 0.662642 -5.17454 -1.92279 0.113707 0.41218 16.3767 0.114045 3.35769 -8.7743 -6.66474 -38.6014 8.05284 -14.3571 -38.7531 -12.0329 -11.7644 -12.6057 1.29373 -18.3937 22.8179 8.96177 0.552233 50.5297 13.212 18.7391 16.8404 -43.0099 -8.63698 5.45569 29.6784 11.3053 -5.44865 9.5078 4.42663 -0.313718 -4.01954 5.98617 1.26572 21.7984 19.5738 -5.88827 -16.5117 -0.379689 -1.37417e-009 8.75219e-006 -1.47719e-008 
151.508 98.2717 3.83637 0.989924 0.247055 -91.932 -4.2477 -23.9049 -3.34141 -1.19088 12.3286 -16.7811 12.9117 -3.13626 -0.655531 0.0462048 0.000530889 0.662642 -4.79242 -2.15288 0.0347971 0.900781 16.5389 -0.0549447 3.08277 -9.79674 -6.76776 -38.6057 8.09045 -14.4376 -38.9149 -9.67069 -12.5771 -12.4356 -0.259491 -21.0438 22.6885 8.94029 0.40948 50.4472 13.1885 18.7354 16.7613 -43.3146 -9.19328 5.68503 29.9753 10.689 -5.45899 9.52137 4.05216 -0.196121 -3.45758 6.013 1.2038 21.0252 19.5516 -5.94024 -16.5718 -0.386635 -1.37417e-009 8.75219e-006 -1.47719e-008 
150.115 98.2222 3.64163 1.10463 0.331243 -91.6059 -3.7894 -23.8329 -3.35768 -1.00683 9.8096 -17.047 13.4766 -3.36725 -0.652233 0.0462048 0.000530889 0.662642 -4.34567 -2.28722 -0.14915 1.29988 16.8304 -0.366822 2.83648 -10.3455 -6.87715 -38.5726 8.12569 -14.5285 -39.5475 -10.3774 -13.2793 -12.3251 1.08894 -22.3839 22.6309 8.92052 0.291399 50.3916 13.1815 18.748 16.469 -43.7274 -9.8774 5.95431 30.3169 9.89904 -5.22537 9.54082 4.04405 -0.018216 -2.42411 6.12018 1.26534 20.4571 19.1822 -6.11654 -16.8124 -0.412536 -1.37417e-009 8.75219e-006 -1.47719e-008 
148.414 98.0539 3.34881 0.769391 0.546792 -90.8851 -3.17839 -23.2032 -3.0813 -0.921768 9.07984 -17.4359 13.3495 -4.00298 -0.579005 0.0462048 0.000530889 0.662642 -3.90339 -2.24876 -0.48844 1.81971 17.1714 -0.927593 2.49557 -10.4566 -6.95612 -38.5512 8.16977 -14.6339 -40.1479 -11.0606 -13.8086 -12.1656 2.25911 -23.1236 22.568 8.90794 0.209505 50.3498 13.1641 18.7368 16.0214 -44.3363 -10.7404 6.1167 30.846 9.06135 -4.89183 9.56269 4.20167 0.327031 -0.951925 6.27135 1.48385 20.3619 18.3662 -6.53661 -17.3901 -0.477748 -1.37417e-009 8.75219e-006 -1.47719e-008 
146.519 97.8265 2.95906 0.334754 0.702546 -90.0696 -2.39369 -22.5363 -2.71982 -1.03296 9.98197 -17.6151 11.6329 -3.73177 -0.54435 0.0462048 0.000530889 0.662642 -3.53637 -2.52447 -0.893418 2.74209 17.7458 -1.68915 2.07583 -10.2926 -7.12589 -38.4433 8.16997 -14.6795 -40.6428 -11.2354 -14.0128 -12.0676 2.68118 -23.3497 22.4419 8.91531 0.217778 50.1454 13.044 18.6224 15.859 -45.1721 -11.5265 6.07108 31.6353 8.27874 -4.68118 9.57364 4.40296 0.780434 0.691626 6.21006 1.71461 20.332 17.6204 -7.32699 -18.1046 -0.589754 -1.37417e-009 8.75219e-006 -1.47719e-008 
